<svg xmlns="http://www.w3.org/2000/svg" width="170.565" height="38.653" viewBox="0 0 170.565 38.653"><g transform="translate(-77.813 2754.525)"><path d="M173.488-2716.043l-.387-1.981h-3.7l-1.191,1.981h-1.777l5.557-9.167h1.571c.161.81,1.789,9.167,1.789,9.167Zm-.593-3.449s-.335-2.311-.553-3.622H172.3c-.522.945-2.049,3.633-2.049,3.633Z" fill="#fff"/><path d="M177.005-2717.75l1.508-7.338,1.732-.567-1.63,7.905c-.083.415.059.531.362.531.166,0,.295-.043.65-.086l-.039,1.128a3.365,3.365,0,0,1-1.068.219c-1.637,0-1.7-.908-1.515-1.792" fill="#fff"/><path d="M191.434-2722.705l-1.365,6.662h-1.6l1.127-5.431h-2.647l-1.113,5.431h-1.61l1.114-5.431h-1.089l.258-1.231h1.088l.174-.859a2.429,2.429,0,0,1,2.473-1.963,4.053,4.053,0,0,1,1.261.232l-.521,1.213a3.653,3.653,0,0,0-.921-.122c-.386,0-.6.182-.689.627l-.174.872Zm-.612-1.006a1.419,1.419,0,0,0,1.319-1.048.867.867,0,0,0-.888-1.054,1.429,1.429,0,0,0-1.327,1.054.865.865,0,0,0,.9,1.048" fill="#fff"/><path d="M194.8-2722.705l-.129.92a3.283,3.283,0,0,1,2.125-1.03c1.86-.122,2.112,1.268,1.809,2.749l-.831,4.023H196.15l.831-4.029c.154-.75-.007-1.317-.831-1.317a2.462,2.462,0,0,0-1.725,1.17l-.856,4.176h-1.636l1.364-6.662Z" fill="#fff"/><path d="M204.89-2718.957c-.213,1.1.181,1.75,1.153,1.75a2.355,2.355,0,0,0,2-.933l1.038.695a3.812,3.812,0,0,1-3.374,1.573c-2.2,0-2.693-1.78-2.376-3.291.431-2.079,1.834-3.639,3.979-3.639,2.2,0,2.563,1.773,2.247,3.346-.019.1-.045.158-.141.5Zm3.193-1.061c.084-.828-.231-1.432-1.133-1.432a2,2,0,0,0-1.77,1.432Z" fill="#fff"/><path d="M213.22-2722.705l-.129.92a3.288,3.288,0,0,1,2.125-1.03c1.861-.122,2.112,1.268,1.809,2.749l-.831,4.023h-1.628l.831-4.029c.154-.75-.007-1.317-.831-1.317a2.466,2.466,0,0,0-1.726,1.17l-.856,4.176h-1.636l1.365-6.662Z" fill="#fff"/><path d="M225.725-2722.827a2.4,2.4,0,0,1,2.287,1.451l-1.386.8a1.252,1.252,0,0,0-1.223-.842c-1.114,0-1.757,1.1-1.964,2.06-.193.939.032,2.03,1.108,2.03a2.054,2.054,0,0,0,1.622-.9l1.147.841a3.837,3.837,0,0,1-3.007,1.481c-2.287,0-2.9-1.7-2.531-3.523a3.9,3.9,0,0,1,3.947-3.407" fill="#fff"/><path d="M232.317-2716.043s.083-.726.115-.872a3.974,3.974,0,0,1-2.3,1.043,1.639,1.639,0,0,1-1.733-2.183c.437-2.126,2.9-2.176,4.527-2.187.181-.878.065-1.214-.856-1.214a3.622,3.622,0,0,0-1.875.6l-.578-1.055a4.294,4.294,0,0,1,2.672-.9c2.549,0,2.446,1.561,2.086,3.328l-.709,3.438Zm.4-3.176c-.863,0-2.486.006-2.717,1.153-.116.566.135.876.76.876a2.524,2.524,0,0,0,1.733-.95Z" fill="#fff"/><path d="M236.454-2718.134a1.59,1.59,0,0,0,1.449.9c.49,0,1.2-.2,1.314-.733.233-1.047-3.392-.84-2.955-2.961a2.45,2.45,0,0,1,2.711-1.89,2.6,2.6,0,0,1,2.356,1.414l-1.145.659a1.8,1.8,0,0,0-1.359-.75c-.439,0-.953.158-1.051.6-.224,1.024,3.458.811,3.014,2.987a2.78,2.78,0,0,1-2.948,2.024,2.638,2.638,0,0,1-2.615-1.536Z" fill="#fff"/><path d="M245.867-2716.043s.084-.726.116-.872a3.977,3.977,0,0,1-2.305,1.043,1.639,1.639,0,0,1-1.733-2.183c.438-2.126,2.9-2.176,4.527-2.187.181-.878.065-1.214-.856-1.214a3.625,3.625,0,0,0-1.875.6l-.578-1.055a4.3,4.3,0,0,1,2.672-.9c2.55,0,2.446,1.561,2.086,3.328l-.708,3.438Zm.406-3.176c-.863,0-2.486.006-2.718,1.153-.115.566.136.876.76.876a2.522,2.522,0,0,0,1.733-.95Z" fill="#fff"/><path d="M120.446-2731.207s-12.633-12.662-13.383-13.408-1.984-1.944-3.928,0c-3.517,3.495-13.171,13.1-14.286,14.214a4.1,4.1,0,0,0-1.569,3.685v2.663H80.467v-5.4c0-1.2.07-2.6,2.6-5.095s16.518-16.258,17.9-17.556,4.572-4.722,8.271,0l11.209,11Z" fill="#fff"/><path d="M94.836-2752.221c-.645.632-13.375,13.012-14.221,13.85a1.7,1.7,0,0,1-2.261.439c-.541-.406-.541-1.174-.541-2.7v-11.426a2.143,2.143,0,0,1,2.119-2.468H92.939c.914,0,1.729,0,2.09.73a1.24,1.24,0,0,1-.193,1.574" fill="#f7cc14"/><path d="M149.414-2736.45a6.741,6.741,0,0,0,.643,2.364,5.255,5.255,0,0,0,1.211,1.6,4.654,4.654,0,0,0,1.6.922,5.613,5.613,0,0,0,1.8.295,6.646,6.646,0,0,0,3.01-.626,4.3,4.3,0,0,0,1.946-2.086,1.843,1.843,0,0,1,.532-.747,1.164,1.164,0,0,1,.679-.191h1.1a1.048,1.048,0,0,1,.716.278.756.756,0,0,1,.275.66,4.334,4.334,0,0,1-.569,1.826,6.2,6.2,0,0,1-1.578,1.843,9.478,9.478,0,0,1-2.57,1.442,9.758,9.758,0,0,1-3.542.591,9.56,9.56,0,0,1-3.579-.626,7.808,7.808,0,0,1-2.643-1.7,7.7,7.7,0,0,1-1.688-2.538,9.153,9.153,0,0,1-.679-3.129q-.038-.557-.055-1.373a9.874,9.874,0,0,1,.055-1.409,10.52,10.52,0,0,1,.752-3.129,7.862,7.862,0,0,1,1.671-2.538,7.635,7.635,0,0,1,2.606-1.7,9.392,9.392,0,0,1,3.56-.626,9.758,9.758,0,0,1,3.542.591,9.453,9.453,0,0,1,2.57,1.443,6.185,6.185,0,0,1,1.578,1.842,4.334,4.334,0,0,1,.569,1.826.754.754,0,0,1-.275.66,1.044,1.044,0,0,1-.716.279h-1.1a1.164,1.164,0,0,1-.679-.191,1.848,1.848,0,0,1-.532-.748,4.3,4.3,0,0,0-1.946-2.086,6.646,6.646,0,0,0-3.01-.626,5.811,5.811,0,0,0-1.817.295,4.622,4.622,0,0,0-1.615.922,5.267,5.267,0,0,0-1.211,1.6,6.259,6.259,0,0,0-.606,2.364,13.544,13.544,0,0,0,0,2.434" fill="#fff"/><path d="M172.943-2747.054a10.048,10.048,0,0,1,3.524.574,7.963,7.963,0,0,1,2.643,1.582,7.292,7.292,0,0,1,1.744,2.451,9.713,9.713,0,0,1,.788,3.146,6.4,6.4,0,0,1,.037.747v1.808a5.528,5.528,0,0,1-.037.713,10.569,10.569,0,0,1-.807,3.163,7.107,7.107,0,0,1-1.725,2.435,7.978,7.978,0,0,1-2.643,1.581,10.048,10.048,0,0,1-3.524.574,10.051,10.051,0,0,1-3.524-.574,7.988,7.988,0,0,1-2.643-1.581,7.332,7.332,0,0,1-1.743-2.435,9.56,9.56,0,0,1-.789-3.163q-.038-.278-.055-.713c-.013-.289-.018-.591-.018-.9s0-.615.018-.905.03-.539.055-.747a9.688,9.688,0,0,1,.789-3.146,7.289,7.289,0,0,1,1.743-2.451,7.973,7.973,0,0,1,2.643-1.582,10.051,10.051,0,0,1,3.524-.574m5.36,10.847a12.149,12.149,0,0,0,.073-1.442,13.112,13.112,0,0,0-.073-1.478,7.158,7.158,0,0,0-.478-1.947,4.669,4.669,0,0,0-1.028-1.565,4.759,4.759,0,0,0-1.614-1.043,6,6,0,0,0-2.24-.383,5.991,5.991,0,0,0-2.239.383,4.763,4.763,0,0,0-1.615,1.043,4.684,4.684,0,0,0-1.028,1.565,7.121,7.121,0,0,0-.477,1.947,12.86,12.86,0,0,0-.074,1.478,11.918,11.918,0,0,0,.074,1.442,7.113,7.113,0,0,0,.477,1.947,4.684,4.684,0,0,0,1.028,1.565,4.749,4.749,0,0,0,1.615,1.043,5.992,5.992,0,0,0,2.239.382,6,6,0,0,0,2.24-.382,4.744,4.744,0,0,0,1.614-1.043,4.669,4.669,0,0,0,1.028-1.565,7.149,7.149,0,0,0,.478-1.947" fill="#fff"/><path d="M187.442-2744.69a9.525,9.525,0,0,1,.771-.852,5.049,5.049,0,0,1,1.009-.765,5.538,5.538,0,0,1,1.34-.539,6.921,6.921,0,0,1,1.8-.208,7.832,7.832,0,0,1,3.707.782,5.76,5.76,0,0,1,2.312,2.243,13.549,13.549,0,0,1,1.01-1.182,5.61,5.61,0,0,1,1.248-.974,6.188,6.188,0,0,1,1.615-.643,8.745,8.745,0,0,1,2.111-.226q3.707,0,5.4,2.1a8.948,8.948,0,0,1,1.689,5.754v9.631a.881.881,0,0,1-.294.66.977.977,0,0,1-.7.278H209.1a.977.977,0,0,1-.7-.278.876.876,0,0,1-.293-.66v-9.283a5.921,5.921,0,0,0-1.1-3.946,4.043,4.043,0,0,0-3.229-1.269,4.2,4.2,0,0,0-3.139,1.217,5.175,5.175,0,0,0-1.193,3.754v9.527a.877.877,0,0,1-.294.66.978.978,0,0,1-.7.278H197.1a.975.975,0,0,1-.7-.278.877.877,0,0,1-.294-.66v-9.283a5.921,5.921,0,0,0-1.1-3.946,4.044,4.044,0,0,0-3.23-1.269,4.194,4.194,0,0,0-3.138,1.217,5.175,5.175,0,0,0-1.193,3.754v9.527a.877.877,0,0,1-.294.66.977.977,0,0,1-.7.278h-1.358a.977.977,0,0,1-.7-.278.876.876,0,0,1-.293-.66v-16.2a.879.879,0,0,1,.293-.66.982.982,0,0,1,.7-.279h1.358a.982.982,0,0,1,.7.279.88.88,0,0,1,.294.66Z" fill="#fff"/><path d="M213.21-2733.182a4.882,4.882,0,0,1,.587-2.435,5.434,5.434,0,0,1,1.615-1.772,8.951,8.951,0,0,1,2.4-1.182,18.793,18.793,0,0,1,2.919-.7l5.175-.8v-.452a3.065,3.065,0,0,0-1.23-2.66,5.1,5.1,0,0,0-3.065-.887,4.389,4.389,0,0,0-2.44.557,5.982,5.982,0,0,0-1.414,1.321,1.186,1.186,0,0,1-.477.382,1.893,1.893,0,0,1-.7.1h-1.1a1.038,1.038,0,0,1-.715-.278.747.747,0,0,1-.275-.661,3.239,3.239,0,0,1,.642-1.564,5.51,5.51,0,0,1,1.541-1.426,9.314,9.314,0,0,1,2.24-1.025,8.9,8.9,0,0,1,2.7-.4,10.02,10.02,0,0,1,3.065.452,6.872,6.872,0,0,1,2.423,1.321,6.008,6.008,0,0,1,1.578,2.155,7.237,7.237,0,0,1,.57,2.956v10.6a.878.878,0,0,1-.3.66.978.978,0,0,1-.7.279H226.9a.978.978,0,0,1-.7-.279.88.88,0,0,1-.293-.66v-1.425a3.228,3.228,0,0,1-1.028,1.164,7.047,7.047,0,0,1-1.6.852,10.214,10.214,0,0,1-1.873.522,10.558,10.558,0,0,1-1.817.173,8.557,8.557,0,0,1-2.624-.383,6.437,6.437,0,0,1-2.019-1.025,4.557,4.557,0,0,1-1.285-1.547,4.24,4.24,0,0,1-.458-1.947m6.754,1.912a7.338,7.338,0,0,0,2.422-.382,5.752,5.752,0,0,0,1.89-1.061,4.6,4.6,0,0,0,1.212-1.616,5.024,5.024,0,0,0,.422-2.087v-.869l-4.331.661a10.847,10.847,0,0,0-3.671,1.113,2.257,2.257,0,0,0-1.358,1.981,1.731,1.731,0,0,0,.184.765,2.24,2.24,0,0,0,.587.73,2.994,2.994,0,0,0,1.046.557,5.269,5.269,0,0,0,1.6.208" fill="#fff"/><path d="M234.866-2736.45a6.741,6.741,0,0,0,.643,2.364,5.255,5.255,0,0,0,1.211,1.6,4.659,4.659,0,0,0,1.6.922,5.625,5.625,0,0,0,1.8.295,6.644,6.644,0,0,0,3.009-.626,4.3,4.3,0,0,0,1.945-2.086,1.844,1.844,0,0,1,.533-.747,1.162,1.162,0,0,1,.679-.191h1.1a1.048,1.048,0,0,1,.716.278.756.756,0,0,1,.275.66,4.305,4.305,0,0,1-.569,1.826,6.2,6.2,0,0,1-1.578,1.843,9.5,9.5,0,0,1-2.569,1.442,9.762,9.762,0,0,1-3.542.591,9.562,9.562,0,0,1-3.58-.626,7.808,7.808,0,0,1-2.643-1.7,7.7,7.7,0,0,1-1.688-2.538,9.177,9.177,0,0,1-.679-3.129q-.037-.557-.055-1.373a9.876,9.876,0,0,1,.055-1.409,10.52,10.52,0,0,1,.752-3.129,7.862,7.862,0,0,1,1.671-2.538,7.626,7.626,0,0,1,2.606-1.7,9.394,9.394,0,0,1,3.561-.626,9.762,9.762,0,0,1,3.542.591,9.477,9.477,0,0,1,2.569,1.443,6.185,6.185,0,0,1,1.578,1.842,4.305,4.305,0,0,1,.569,1.826.754.754,0,0,1-.275.66,1.044,1.044,0,0,1-.716.279h-1.1a1.162,1.162,0,0,1-.679-.191,1.848,1.848,0,0,1-.533-.748,4.3,4.3,0,0,0-1.945-2.086,6.644,6.644,0,0,0-3.009-.626,5.812,5.812,0,0,0-1.818.295,4.622,4.622,0,0,0-1.615.922,5.267,5.267,0,0,0-1.211,1.6,6.26,6.26,0,0,0-.606,2.364,13.544,13.544,0,0,0,0,2.434" fill="#fff"/><path d="M143.811-2733.84l-1.668-.937a.365.365,0,0,0-.284-.032.366.366,0,0,0-.222.182,6.5,6.5,0,0,1-2.371,2.554,6.362,6.362,0,0,1-3.382.931,6.247,6.247,0,0,1-3.548-1.043l11.285-9.951a.829.829,0,0,0,.123-1.1,9.545,9.545,0,0,0-3.163-2.8,9.425,9.425,0,0,0-4.7-1.246,9.409,9.409,0,0,0-5.141,1.492,9.044,9.044,0,0,0-4.067,5.019,10.948,10.948,0,0,0,.1,6.2,9.676,9.676,0,0,0,2.344,3.674,9.281,9.281,0,0,0,6.767,2.847,9.358,9.358,0,0,0,4.988-1.4,9.546,9.546,0,0,0,3.233-3.251.817.817,0,0,0-.294-1.134m-4.011-9.03-9.558,8.481a.012.012,0,0,1-.017,0,6.5,6.5,0,0,1-.865-3.276,6.333,6.333,0,0,1,1.882-4.641,6.255,6.255,0,0,1,4.642-1.882,6.3,6.3,0,0,1,3.916,1.3.01.01,0,0,1,0,.016" fill="#fff"/></g></svg>