<?xml version="1.0" encoding="UTF-8"?>
<svg width="179px" height="50px" viewBox="0 0 179 50" version="1.1" xmlns="http://www.w3.org/2000/svg" xmlns:xlink="http://www.w3.org/1999/xlink">
    <!-- Generator: Sketch 61 (89581) - https://sketch.com -->
    <title>footer_logo</title>
    <desc>Created with Sketch.</desc>
    <g id="Symbols" stroke="none" stroke-width="1" fill="none" fill-rule="evenodd">
        <g id="footer" transform="translate(-1109.000000, -71.000000)" fill="#FEFEFE" fill-rule="nonzero">
            <g id="footer_logo">
                <g transform="translate(1109.000000, 71.000000)">
                    <path d="M175.5,0 C177.350103,0 179,1.36626506 179,3.49156627 C179,5.62424699 177.350103,7 175.5,7 C173.649897,7 172,5.62424699 172,3.49156627 C172,1.36626506 173.649897,0 175.5,0 Z M175.597536,6.55722892 C177.00924,6.55722892 178.167351,5.39653614 178.167351,3.79728916 C178.167351,2.20542169 177.00924,1.05421687 175.597536,1.05421687 C174.166324,1.05421687 173.026694,2.20542169 173.026694,3.79728916 C173.026694,5.39653614 174.166324,6.55722892 175.597536,6.55722892 Z M174.053388,2.10843373 L175.49384,2.10843373 C176.450719,2.10843373 176.988706,2.41731928 176.988706,3.26912651 C176.988706,3.98915663 176.551335,4.27063253 175.985626,4.31701807 L177.00616,6.02906627 L176.213552,6.02906627 L175.284394,4.35391566 L174.810062,4.35391566 L174.810062,6.02906627 L174.053388,6.02906627 L174.053388,2.10843373 Z M174.053388,4.19262048 L174.727926,4.19262048 C175.156057,4.19262048 175.475359,4.12620482 175.475359,3.6496988 C175.475359,3.22801205 175.037988,3.1626506 174.690965,3.1626506 L174.053388,3.1626506 L174.053388,4.19262048 Z" id="Fill-1"></path>
                    <path d="M179,50 L179,37.6682855 C179,35.1008777 176.968985,33 174.486846,33 L0,33 L0,45.3346987 C0,47.9011118 2.03101507,50 4.51315352,50 L179,50 Z M7.84413362,38.4571094 C7.84413362,39.3941486 8.43155386,39.5145114 11.5299076,40.3003511 C12.4283151,40.5231714 15.1974448,41.085196 15.1974448,43.8515506 C15.1974448,46.0887068 13.4150275,47.761849 10.0584775,47.761849 C7.32582165,47.761849 4.76497656,46.4299005 4.7995307,43.4258046 L7.42852421,43.4258046 C7.42852421,45.0472206 8.70894675,45.6788765 10.1630998,45.6788765 C11.1133384,45.6788765 12.5674914,45.4063195 12.5674914,44.1589233 C12.5674914,42.84488 10.7159659,42.6220597 8.89899447,42.1455822 C7.06474599,41.6661205 5.21514011,40.965828 5.21514011,38.6779403 C5.21514011,36.1841428 7.6022547,34.9894675 9.83291584,34.9894675 C12.4119978,34.9894675 14.7808755,36.0995904 14.7808755,38.9166764 L12.1509222,38.9166764 C12.0654967,37.4494441 11.0106358,37.07244 9.71197638,37.07244 C8.84812311,37.07244 7.84413362,37.4315389 7.84413362,38.4571094 Z M28.410215,47.1809245 L25.5892541,47.1809245 L24.6562926,44.4662961 L20.0365971,44.4662961 L19.0671618,47.1809245 L16.3172288,47.1809245 L21.0050727,34.9894675 L23.7895598,34.9894675 L28.410215,47.1809245 Z M43.0294922,34.9894675 L43.0294922,47.1819193 L40.3131535,47.1819193 L40.3131535,34.9894675 L43.0294922,34.9894675 Z M32.4712853,34.9894675 L32.4712853,44.9268578 L38.4904231,44.9268578 L38.4904231,47.1809245 L29.7549466,47.1809245 L29.7549466,34.9894675 L32.4712853,34.9894675 Z M56.5046437,47.1809245 L53.788305,47.1809245 L48.6512574,39.019134 L48.6157435,39.019134 L48.6157435,47.1809245 L46.0721755,47.1809245 L46.0721755,34.9894675 L48.7721969,34.9894675 L53.9274814,43.170158 L53.9620355,43.170158 L53.9620355,34.9894675 L56.5046437,34.9894675 L56.5046437,47.1809245 Z M69.6832055,47.1809245 L66.8622446,47.1809245 L65.9283232,44.4662961 L61.3105475,44.4662961 L60.3401523,47.1809245 L57.5902193,47.1809245 L62.279023,34.9894675 L65.0644699,34.9894675 L69.6832055,47.1809245 Z M73.1130488,38.4571094 C73.1130488,39.3941486 73.7023887,39.5145114 76.797863,40.3003511 C77.69915,40.5231714 80.46636,41.085196 80.46636,43.8515506 C80.46636,46.0887068 78.6839427,47.761849 75.3283526,47.761849 C72.5947369,47.761849 70.0338918,46.4299005 70.0684459,43.4258046 L72.6993591,43.4258046 C72.6993591,45.0472206 73.9788218,45.6788765 75.4310552,45.6788765 C76.3841733,45.6788765 77.8364066,45.4063195 77.8364066,44.1589233 C77.8364066,42.84488 75.9858409,42.6220597 74.1698294,42.1455822 C72.3355809,41.6661205 70.4840553,40.965828 70.4840553,38.6779403 C70.4840553,36.1841428 72.8711699,34.9894675 75.1037507,34.9894675 C77.6809131,34.9894675 80.0517104,36.0995904 80.0517104,38.9166764 L77.4217571,38.9166764 C77.3353717,37.4494441 76.2795511,37.07244 74.9828113,37.07244 C74.1170383,37.07244 73.1130488,37.4315389 73.1130488,38.4571094 Z M98.2364363,34.9894675 L93.6522548,42.5026916 L93.6522548,47.1809245 L90.9349563,47.1809245 L90.9349563,42.4350497 L86.385329,34.9894675 L89.4481688,34.9894675 L92.3363183,39.8039789 L95.2091104,34.9894675 L98.2364363,34.9894675 Z M114.267634,37.244529 L108.298407,37.244529 L108.298407,40.061615 L113.471929,40.061615 L113.471929,42.1455822 L108.298407,42.1455822 L108.298407,47.1809245 L105.582069,47.1809245 L105.582069,34.9894675 L114.267634,34.9894675 L114.267634,37.244529 Z M125.353751,47.1809245 L122.53375,47.1809245 L121.598869,44.4662961 L116.981093,44.4662961 L116.011657,47.1809245 L113.260765,47.1809245 L117.948609,34.9894675 L120.735015,34.9894675 L125.353751,47.1809245 Z M138.004402,43.6466355 C138.004402,46.1235225 135.877404,47.1809245 133.644823,47.1809245 L127.658319,47.1809245 L127.658319,34.9894675 L133.472052,34.9894675 C135.825572,34.9894675 137.416022,35.7404915 137.416022,38.0114687 C137.416022,39.2071387 136.810365,40.0437098 135.738227,40.5569924 C137.243252,40.9837332 138.004402,42.1266823 138.004402,43.6466355 Z M148.457987,41.4094792 L148.457987,41.4442949 C149.791201,41.7854886 150.170336,43.0667057 150.257681,44.2961966 C150.309513,45.0641311 150.291276,46.4985372 150.776953,47.1809245 L148.060615,47.1809245 C147.730431,46.4139848 147.765945,45.2352253 147.627728,44.2613809 C147.43768,42.9811586 146.936645,42.4171445 145.568878,42.4171445 L142.851579,42.4171445 L142.851579,47.1809245 L140.1362,47.1809245 L140.1362,34.9894675 L146.797469,34.9894675 C149.010853,34.9894675 150.412215,36.5094207 150.412215,38.3526624 C150.412215,39.7880632 149.824795,40.8633704 148.457987,41.4094792 Z M161.991689,47.1809245 L152.614081,47.1809245 L152.614081,34.9894675 L161.852512,34.9894675 L161.852512,37.244529 L155.32946,37.244529 L155.32946,39.8566998 L161.316923,39.8566998 L161.316923,41.9386776 L155.32946,41.9386776 L155.32946,44.9268578 L161.991689,44.9268578 L161.991689,47.1809245 Z M166.218196,38.4571094 C166.218196,39.3941486 166.806576,39.5145114 169.903011,40.3003511 C170.802378,40.5231714 173.570548,41.085196 173.570548,43.8515506 C173.570548,46.0887068 171.78813,47.761849 168.43158,47.761849 C165.698925,47.761849 163.138079,46.4299005 163.172634,43.4258046 L165.801627,43.4258046 C165.801627,45.0472206 167.083009,45.6788765 168.536203,45.6788765 C169.487401,45.6788765 170.941554,45.4063195 170.941554,44.1589233 C170.941554,42.84488 169.090029,42.6220597 167.272097,42.1455822 C165.438809,41.6661205 163.587283,40.965828 163.587283,38.6779403 C163.587283,36.1841428 165.976317,34.9894675 168.207938,34.9894675 C170.784141,34.9894675 173.154938,36.0995904 173.154938,38.9166764 L170.525945,38.9166764 C170.4386,37.4494441 169.382779,37.07244 168.086999,37.07244 C167.221226,37.07244 166.218196,37.4315389 166.218196,38.4571094 Z M147.860968,38.6689877 C147.860968,37.4922177 147.20348,36.978935 145.993126,36.978935 L143.015711,36.978935 L143.015711,40.4107665 L145.993126,40.4107665 C147.20348,40.4107665 147.860968,39.8984786 147.860968,38.6689877 Z M134.491399,43.6943827 C134.491399,42.4479813 133.695694,41.9526039 132.536211,41.9526039 L129.577993,41.9526039 L129.577993,45.299883 L132.48534,45.299883 C133.558437,45.299883 134.491399,44.9586893 134.491399,43.6943827 Z M133.991324,38.3785255 C133.991324,37.2176712 133.090037,36.978935 132.121561,36.978935 L129.577993,36.978935 L129.577993,39.8308367 L132.328886,39.8308367 C133.281045,39.8308367 133.991324,39.404096 133.991324,38.3785255 Z M118.05995,42.4479813 L121.261006,42.4479813 L119.70415,37.9736688 L119.669596,37.9736688 L118.05995,42.4479813 Z M62.3894043,42.4479813 L65.5895008,42.4479813 L64.0326452,37.9736688 L63.9990509,37.9736688 L62.3894043,42.4479813 Z M20.1565768,42.4479813 L23.3576331,42.4479813 L21.7998177,37.9736688 L21.7652636,37.9736688 L20.1565768,42.4479813 Z" id="Fill-3"></path>
                    <path d="M11.9427614,16.0049346 L23.288914,20.0447684 C22.4969639,22.0303217 21.5654843,23.791806 20.5733816,25.2755576 L10.5849952,21.7186962 C10.8005442,19.9543876 11.245114,18.0224978 11.9427614,16.0049346 Z M15.1990908,9.4146674 L25.2384776,12.9894166 C25.0152304,14.7518424 24.5610379,16.6837321 23.8585792,18.696588 L12.5095398,14.6529883 C13.2918671,12.667435 14.213724,10.9040678 15.1990908,9.4146674 Z M23.0050436,3.89917883 L23.1869131,3.96319857 C24.9420978,4.61751795 25.9072569,7.3251763 25.6830474,11.169185 L16.3586289,7.84863181 C18.7113847,4.7634453 21.2296513,3.29569865 23.0050436,3.89917883 Z M11.0853768,5.92935753 L8.66045061,5.06603253 C10.7072038,3.8044671 13.1263563,3.01834237 15.6994724,2.82440022 C14.0539868,3.51261241 12.4825961,4.56705516 11.0853768,5.92935753 Z M2.88681687,19.7708015 L5.27806351,20.6218875 C5.46378206,22.4972892 5.96897501,24.2512418 6.76092511,25.7792423 C4.95377775,24.0450605 3.63450244,21.9747752 2.88681687,19.7708015 Z M6.73590603,21.653735 L9.33115439,22.5773139 C9.17045492,24.6297114 9.30517304,26.4928741 9.75166739,27.9916891 C8.17161629,26.3921371 7.1294754,24.1702756 6.73590603,21.653735 Z M9.66357838,21.0634354 L6.75366697,20.0268805 C6.6622511,18.1345324 6.92206462,16.1254423 7.57159841,14.1220011 L11.0540618,15.3619128 C10.3814335,17.3051002 9.91569372,19.2407558 9.66357838,21.0634354 Z M4.94518088,19.3264292 L2.18442168,18.3425965 C1.77449368,16.3240918 1.84089047,14.238743 2.44519747,12.2390676 L5.8853209,13.4639159 C5.23482483,15.4438204 4.93170906,17.4312567 4.94518088,19.3264292 Z M6.63775426,6.59026718 L9.42353253,7.58069019 C8.17931446,9.03243191 7.1188904,10.7506087 6.32982712,12.6768497 L2.88681687,11.4520014 C3.71822013,9.53517515 5.01728772,7.89043275 6.63775426,6.59026718 Z M10.9102432,7.53173392 L13.8422869,8.576762 C12.8453728,10.1358309 11.9369878,11.9152031 11.1825663,13.8254391 L7.69817832,12.5864689 C8.50360023,10.6395156 9.6121379,8.93263643 10.9102432,7.53173392 Z M15.132694,7.74450541 L12.5095398,6.80962893 C14.4860471,5.0782716 16.782991,4.00311658 19.0818595,3.76586696 C17.7298669,4.6480213 16.3778744,6.0263286 15.132694,7.74450541 Z M22.1322627,25.0128884 C23.1359127,23.4566438 24.0519959,21.6810376 24.8131533,19.7708015 L28.2946544,21.0107132 C27.4757607,22.9548421 26.3547135,24.6570139 25.0421741,26.0485018 L22.1322627,25.0128884 Z M17.4089807,28.4511249 L11.7854614,28.4511249 C10.9434732,27.1716716 10.4786957,25.1164497 10.6057156,22.5952018 L19.8646996,25.8912768 C19.0515795,26.9438366 18.2201762,27.8024543 17.4089807,28.4511249 Z M21.9975445,28.503847 L19.2454458,28.503847 C19.8622623,27.8740058 20.4665693,27.1528423 21.0487441,26.3610687 L23.6430302,27.2837061 C23.1157049,27.7384346 22.5643229,28.1460897 21.9975445,28.503847 Z M27.0225304,29 L24.0568072,29 C24.3426021,28.7608674 24.6245479,28.5076129 24.8997578,28.2440022 L27.0225304,29 Z M29,21.653735 L29,27.2479304 L28.742111,27.456936 L25.9813518,26.4731033 C27.1793808,25.0938545 28.211899,23.4717073 29,21.653735 Z M28.9971132,14.09564 L28.9971132,18.3077622 C28.8672064,18.9074765 28.7026579,19.5128397 28.5034675,20.1144369 L25.0190795,18.8735837 C25.6974815,16.9360452 26.1699572,15.0022725 26.4297707,13.1805344 L28.9971132,14.09564 Z M28.7940737,10.9530241 L28.7940737,12.0338279 L26.3922421,11.1789761 C26.5664134,9.07856378 26.4355443,7.17209363 25.9813518,5.64880044 C27.3400803,7.02522482 28.3013903,8.86202643 28.7940737,10.9530241 Z M0,0 L28.8508478,0 L28.8508478,5.40872642 C27.2563626,4.06996072 25.3828185,2.97691783 23.2918008,2.22374444 C14.6987092,-0.804012596 4.94126821,2.77167808 1.94379003,10.8343992 C-0.440720709,17.2420219 2.18532037,24.1241438 7.68181969,28.2279973 L0,28.2279973 L0,0 Z" id="Fill-5"></path>
                    <path d="M38.3357098,19.8127985 C38.3357098,23.6227316 41.9063678,25.1069723 45.9596249,25.1069723 C48.6120043,25.1069723 52.6662188,24.4651385 52.6662188,21.5367717 C52.6662188,18.4489016 47.5031756,17.9274117 42.4368437,16.8051576 C37.3216773,15.6819484 32.1595917,14.0372493 32.1595917,8.66284623 C32.1595917,2.80706781 38.8183088,0 45.0423037,0 C52.2314967,0 58.8423369,2.60744986 58.8423369,9.22445081 L51.5075982,9.22445081 C51.2672563,5.77554919 48.3237854,4.8930277 44.7033354,4.8930277 C42.2922555,4.8930277 39.4933728,5.73543457 39.4933728,8.14135626 C39.4933728,10.34766 41.1345924,10.6284623 49.7706249,12.4718243 C52.2803311,12.9942693 60,14.3180516 60,20.8156638 C60,26.0687679 55.0303794,30 45.6704485,30 C38.0465334,30 30.9042597,26.8710602 31.0009711,19.8127985 L38.3357098,19.8127985 Z" id="Fill-7"></path>
                    <path d="M72.7945034,0 L80.3947533,0 L93,29 L85.3060587,29 L82.7557776,22.5431955 L70.1505309,22.5431955 L67.5056215,29 L60,29 L72.7945034,0 Z M72.1798876,18.3808539 L80.912867,18.3808539 L76.66396,7.73849233 L76.5702686,7.73849233 L72.1798876,18.3808539 Z" id="Fill-9"></path>
                    <polygon id="Fill-11" points="95 0 102.460505 0 102.460505 23.6381921 119 23.6381921 119 29 95 29"></polygon>
                    <polygon id="Fill-13" points="122 0 146 0 146 5.36084056 129.505989 5.36084056 129.505989 12.0633422 143.800672 12.0633422 143.800672 17.0188793 129.505989 17.0188793 129.505989 29 122 29"></polygon>
                    <path d="M157.794503,0 L165.393816,0 L178,29 L170.306059,29 L167.755778,22.5431955 L155.150531,22.5431955 L152.505621,29 L145,29 L157.794503,0 Z M157.179888,18.3808539 L165.912867,18.3808539 L161.66396,7.73849233 L161.570269,7.73849233 L157.179888,18.3808539 Z" id="Fill-15"></path>
                </g>
            </g>
        </g>
    </g>
</svg>